<?xml version="1.0" encoding="UTF-8"?>
<!DOCTYPE svg PUBLIC "-//W3C//DTD SVG 1.1//EN" "http://www.w3.org/Graphics/SVG/1.1/DTD/svg11.dtd">
<svg version="1.1" xmlns="http://www.w3.org/2000/svg" xmlns:xlink="http://www.w3.org/1999/xlink" x="0px" y="0px" width="260" height="60" viewBox="0, 0, 260, 60">
  <g id="Layer 1">
    <path d="M21.834,50.211 L21.834,55.913 L9.567,55.913 L9.567,13.474 L15.347,13.474 L15.347,50.211 z" fill="#527292"/>
    <path d="M54.093,50.211 L54.093,55.913 L66.359,55.913 L66.359,13.474 L60.58,13.474 L60.58,50.211 z" fill="#527292"/>
    <path d="M26.047,4.087 L32.55,4.087 L38.085,21.65 L43.619,4.087 L50.123,4.087 L38.085,35.371 z" fill="#FF4D41"/>
    <path d="M93.607,37.552 L93.607,44.423 L89.976,44.423 L89.976,24.902 L96.334,24.902 Q98.292,24.902 99.723,25.361 Q101.154,25.82 102.085,26.644 Q103.017,27.467 103.462,28.615 Q103.908,29.762 103.908,31.126 Q103.908,32.543 103.435,33.724 Q102.963,34.906 102.018,35.756 Q101.073,36.607 99.655,37.079 Q98.238,37.552 96.334,37.552 z M93.607,34.717 L96.334,34.717 Q97.333,34.717 98.076,34.467 Q98.818,34.217 99.304,33.751 Q99.79,33.286 100.033,32.617 Q100.276,31.949 100.276,31.126 Q100.276,30.343 100.033,29.708 Q99.79,29.074 99.304,28.628 Q98.818,28.183 98.076,27.946 Q97.333,27.71 96.334,27.71 L93.607,27.71 z" fill="#506A85"/>
    <path d="M121.795,44.423 L118.987,44.423 Q118.514,44.423 118.211,44.187 Q117.907,43.951 117.772,43.6 L116.314,39.617 L108.228,39.617 L106.77,43.6 Q106.661,43.91 106.344,44.167 Q106.027,44.423 105.568,44.423 L102.746,44.423 L110.414,24.902 L114.127,24.902 z M109.159,37.052 L115.382,37.052 L113.007,30.559 Q112.844,30.127 112.649,29.539 Q112.453,28.952 112.264,28.264 Q112.075,28.952 111.893,29.546 Q111.71,30.14 111.535,30.586 z" fill="#506A85"/>
    <path d="M136.537,39.819 Q136.834,39.819 137.05,40.049 L138.481,41.602 Q137.293,43.073 135.558,43.856 Q133.824,44.639 131.394,44.639 Q129.22,44.639 127.485,43.896 Q125.751,43.154 124.522,41.831 Q123.294,40.508 122.639,38.672 Q121.984,36.836 121.984,34.663 Q121.984,32.462 122.713,30.633 Q123.442,28.804 124.765,27.481 Q126.088,26.158 127.931,25.422 Q129.773,24.686 132.001,24.686 Q134.174,24.686 135.801,25.381 Q137.428,26.077 138.589,27.224 L137.374,28.912 Q137.266,29.074 137.097,29.195 Q136.928,29.317 136.632,29.317 Q136.321,29.317 135.997,29.074 Q135.673,28.831 135.174,28.547 Q134.674,28.264 133.911,28.021 Q133.148,27.778 131.974,27.778 Q130.597,27.778 129.443,28.257 Q128.288,28.736 127.458,29.627 Q126.628,30.518 126.162,31.794 Q125.697,33.069 125.697,34.663 Q125.697,36.31 126.162,37.592 Q126.628,38.875 127.424,39.752 Q128.221,40.63 129.301,41.095 Q130.381,41.561 131.623,41.561 Q132.366,41.561 132.966,41.48 Q133.567,41.399 134.073,41.224 Q134.579,41.048 135.032,40.771 Q135.484,40.495 135.93,40.09 Q136.064,39.968 136.213,39.894 Q136.361,39.819 136.537,39.819 z" fill="#506A85"/>
    <path d="M144.975,33.083 L145.825,33.083 Q146.338,33.083 146.675,32.941 Q147.013,32.799 147.256,32.489 L152.643,25.671 Q152.98,25.24 153.351,25.071 Q153.723,24.902 154.289,24.902 L157.421,24.902 L150.847,33.015 Q150.536,33.394 150.253,33.65 Q149.969,33.906 149.645,34.069 Q150.091,34.23 150.449,34.528 Q150.807,34.825 151.144,35.284 L157.921,44.423 L154.708,44.423 Q154.06,44.423 153.743,44.241 Q153.425,44.058 153.21,43.708 L147.688,36.499 Q147.418,36.147 147.08,35.992 Q146.743,35.837 146.122,35.837 L144.975,35.837 L144.975,44.423 L141.343,44.423 L141.343,24.889 L144.975,24.889 z" fill="#506A85"/>
    <path d="M177.226,44.423 L174.418,44.423 Q173.945,44.423 173.642,44.187 Q173.338,43.951 173.203,43.6 L171.745,39.617 L163.658,39.617 L162.201,43.6 Q162.092,43.91 161.775,44.167 Q161.458,44.423 160.999,44.423 L158.178,44.423 L165.846,24.902 L169.558,24.902 z M164.59,37.052 L170.813,37.052 L168.438,30.559 Q168.275,30.127 168.08,29.539 Q167.884,28.952 167.695,28.264 Q167.506,28.952 167.324,29.546 Q167.141,30.14 166.966,30.586 z" fill="#506A85"/>
    <path d="M187.513,41.75 Q188.742,41.75 189.653,41.527 Q190.564,41.305 191.387,40.913 L191.387,37.363 L188.944,37.363 Q188.593,37.363 188.391,37.167 Q188.188,36.971 188.188,36.688 L188.188,34.636 L194.682,34.636 L194.682,42.533 Q193.939,43.073 193.136,43.471 Q192.333,43.87 191.421,44.126 Q190.51,44.382 189.471,44.511 Q188.431,44.639 187.23,44.639 Q185.096,44.639 183.301,43.896 Q181.506,43.154 180.196,41.831 Q178.887,40.508 178.151,38.672 Q177.415,36.836 177.415,34.663 Q177.415,32.462 178.131,30.626 Q178.846,28.79 180.162,27.467 Q181.479,26.144 183.355,25.415 Q185.232,24.686 187.567,24.686 Q189.956,24.686 191.705,25.395 Q193.453,26.104 194.668,27.238 L193.615,28.885 Q193.305,29.384 192.792,29.384 Q192.467,29.384 192.13,29.168 Q191.698,28.912 191.246,28.655 Q190.794,28.399 190.247,28.21 Q189.7,28.021 189.018,27.899 Q188.337,27.778 187.445,27.778 Q186.001,27.778 184.833,28.264 Q183.665,28.75 182.842,29.654 Q182.019,30.559 181.573,31.828 Q181.128,33.097 181.128,34.663 Q181.128,36.35 181.6,37.666 Q182.072,38.983 182.923,39.887 Q183.773,40.792 184.948,41.271 Q186.122,41.75 187.513,41.75 z" fill="#506A85"/>
    <path d="M210.382,24.902 L210.382,27.791 L201.729,27.791 L201.729,33.205 L208.546,33.205 L208.546,35.999 L201.729,35.999 L201.729,41.521 L210.382,41.521 L210.382,44.423 L198.07,44.423 L198.07,24.902 z" fill="#506A85"/>
    <path d="M217.281,36.796 L217.281,44.423 L213.649,44.423 L213.649,24.902 L219.603,24.902 Q221.601,24.902 223.025,25.314 Q224.449,25.726 225.36,26.468 Q226.271,27.211 226.697,28.243 Q227.122,29.276 227.122,30.518 Q227.122,31.504 226.832,32.381 Q226.542,33.259 225.995,33.974 Q225.448,34.69 224.645,35.229 Q223.842,35.77 222.816,36.094 Q223.504,36.485 224.004,37.214 L228.891,44.423 L225.624,44.423 Q225.151,44.423 224.82,44.234 Q224.49,44.045 224.26,43.694 L220.156,37.444 Q219.926,37.093 219.65,36.944 Q219.373,36.796 218.833,36.796 z M217.281,34.19 L219.549,34.19 Q220.575,34.19 221.337,33.934 Q222.1,33.677 222.593,33.225 Q223.086,32.773 223.329,32.152 Q223.572,31.531 223.572,30.788 Q223.572,29.303 222.593,28.507 Q221.614,27.71 219.603,27.71 L217.281,27.71 z" fill="#506A85"/>
  </g>
  <defs/>
</svg>
